<?xml version="1.0" encoding="UTF-8"?>
<svg version="1.1" viewBox="0 0 1600 1600" width="1280" height="1280" xmlns="http://www.w3.org/2000/svg">
<path transform="translate(508 631)" d="m0 0c3.19 2.89 6.29 5.86 9.39 8.85 0.736 0.684 1.47 1.37 2.23 2.07 8.5 8.1 15.2 17.7 21.4 27.6 0.438 0.695 0.876 1.39 1.33 2.11 3.05 4.95 3.05 4.95 3.05 7.21 2.3-2.23 4.52-4.41 6.54-6.9 6.84-8.44 15.7-13.2 26.2-15.8 19.6-1.89 37.7 3.52 53.2 15.7 38.2 32.5 54.3 89.1 60 137 0.133 1.08 0.266 2.16 0.402 3.28 0.298 2.91 0.478 5.8 0.598 8.72 0.0408 1 0.0408 1 0.0825 2.02 1.91 55.1-18.3 106-55.1 146-7.47 7.99-15.3 15.4-24 22-0.614 0.474-1.23 0.947-1.86 1.44-24.1 18.5-51.4 32-80.1 41.6 0.658 8.73 1.83 17.4 3.04 26 3.31 23.8 5.88 47.6 7.58 71.5 0.0626 0.867 0.125 1.73 0.19 2.63 1.97 27.5 2.39 55 2.37 82.6-1.2e-4 0.838-2.39e-4 1.68-3.62e-4 2.54-0.0055 30.6-0.617 61.1-2.19 91.6-0.0556 1.1-0.111 2.2-0.169 3.33-0.826 16.2-1.77 32.5-2.83 48.7-0.0559 0.861-0.112 1.72-0.169 2.61-2.91 44.5-8.45 88.8-15 133-1.31 8.81-2.56 17.6-3.81 26.5 0.629 0.465 1.26 0.93 1.91 1.41 8.52 6.35 16 13.7 18.1 24.6 0.836 11-0.288 18.6-7.12 27.2-3.99 4.29-8.49 6.57-13.9 8.75-1.08 0.445-1.08 0.445-2.18 0.898-26.7 9.91-60.5 4.32-86.2-6.3-9.71-4.51-15.1-9.55-19.6-19.3-3.44-11-3.4-22.1-3.36-33.5 0.00149-0.867 0.00298-1.73 0.00452-2.63 0.0584-19.2 1.43-38.2 3.06-57.3 0.539-6.35 1.05-12.7 1.57-19.1 0.434-5.33 0.87-10.7 1.32-16 1.4-16.8 2.57-33.5 2.55-50.3-2.72e-4 -0.715-5.44e-4 -1.43-8.24e-4 -2.17-0.0302-17.3-0.195-36-9.19-51.3-6.63-3.31-18.5-1.69-25.6-0.281-5.87 2-10.2 4.61-13.5 10-1.19 2.86-1.47 5.45-1.79 8.53-0.143 1.31-0.286 2.62-0.433 3.96-0.0739 0.708-0.148 1.42-0.224 2.14-0.412 3.93-0.85 7.86-1.28 11.8-0.14 1.28-0.14 1.28-0.283 2.59-1.09 9.87-2.28 19.7-3.47 29.6-0.388 3.21-0.774 6.42-1.16 9.64-1.1 9.18-2.21 18.4-3.34 27.5-2.18 17.7-4.24 35.3-5.76 53-0.0634 0.719-0.127 1.44-0.192 2.18-0.681 7.82-1.13 15.6-1.23 23.5-0.0263 1.06-0.0263 1.06-0.0532 2.14-0.0211 6.42 2.1 10 6.29 14.7 7.36 9.06 10.8 16.8 10.4 28.7-0.549 4.74-1.93 8.28-4.39 12.3-0.327 0.612-0.655 1.22-0.992 1.86-5.27 8.72-15.3 12.8-24.7 15.4-28.7 6.7-70.2 7.76-96.9-6.61-6.99-4.41-11.5-9.09-13.9-17.1-2.83-12.6-1.68-26-0.785-38.7 0.132-1.88 0.132-1.88 0.266-3.8 0.986-13.3 2.49-26.6 4.07-39.8 0.812-6.82 1.6-13.7 2.39-20.5 0.276-2.39 0.554-4.78 0.831-7.17 2.03-17.5 3.96-35 5.85-52.5 0.0838-0.774 0.168-1.55 0.254-2.35 3.75-34.7 7.3-69.5 9.87-104 0.0765-1.03 0.153-2.06 0.232-3.12 0.459-6.76 0.529-13.5 0.456-20.3-0.434 0.619-0.869 1.24-1.32 1.88-4.39 6.17-9.24 10.2-15.7 14.1-0.659 0.401-1.32 0.802-2 1.21-10.8 5.97-22.2 6.91-34.1 4.03-22.8-6.95-40-25.7-53.9-44.2-0.648-0.865-0.648-0.865-1.31-1.75-6.51-8.73-12.3-17.8-17.7-27.3-0.343-0.599-0.685-1.2-1.04-1.81-5.47-9.64-9.92-19.6-14-29.9-0.584-1.45-1.17-2.91-1.77-4.35-4.68-11.4-7.59-22.9-10.1-34.9-0.237-1.11-0.474-2.22-0.719-3.36-8.52-43.3 2.5-91.4 26.6-128 13.5-19.9 30.1-37.9 49.4-52.3 1.69-1.27 3.36-2.57 5.02-3.87 37.4-29.4 37.4-29.4 46.7-29.4-3.95-4.11-8.18-7.69-12.6-11.2-1.43-1.15-2.86-2.31-4.29-3.46l-2.11-1.7c-5.94-4.78-11.9-9.59-17.7-14.5-0.965-0.818-0.965-0.818-1.95-1.65-1.36-1.41-1.36-1.41-1.36-3.41-1.32-0.66-2.64-1.32-4-2v-2c-0.99-0.33-1.98-0.66-3-1-1.78-1.94-3.39-3.86-5-5.94-0.481-0.62-0.963-1.24-1.46-1.88-31.9-42.1-43.5-96.3-36.5-148 7.41-45 32.1-86.8 69.2-114 77.4-55.2 190-61.5 306 8.89zm-294 3.85c-0.946 0.696-1.89 1.39-2.87 2.11-33.7 26-56.2 64.4-61.7 107-4.72 44.2 4.19 92.1 32.3 128 4.68 5.68 9.72 11 14.9 16.2 1.36 1.36 2.71 2.74 4.02 4.16 6.27 6.69 13.7 11.9 21 17.4 4.09 3.09 8.14 6.22 12.2 9.35 0.758 0.583 1.52 1.17 2.3 1.77 9.44 7.32 9.44 7.32 10.7 11.1 0.21 2.87 0.213 4.85-0.812 7.56-1.66 0.688-3.33 1.35-5 2-2.98 1.58-5.9 3.29-8.81 5-0.839 0.489-1.68 0.978-2.54 1.48-22.6 13.2-44.1 27.8-63 45.9-1.12 1.07-2.25 2.14-3.38 3.21-31.2 29.5-51.9 70-53.3 113-0.0599 1.8-0.0599 1.8-0.121 3.64-0.716 43 17 86.9 42.1 121 0.681 0.963 1.36 1.93 2.06 2.92 11.2 15.4 29 37.1 48.8 40.9 9.26 0.837 16.6-1.31 24.1-6.81 5.97-5.68 8.71-12.8 9.16-21-0.672-20.9-13.8-37.4-26.2-53-17.7-22.4-32.5-47.3-30-77 2.59-16.9 10.2-31.8 23.2-43 12.7-9.04 27-13.8 42.5-14.3 1.11-0.0374 2.22-0.0748 3.36-0.113 2.89 0.426 2.89 0.426 4.49 2.14 1.53 2.51 2.09 4.46 2.64 7.35 0.195 1.01 0.391 2.02 0.592 3.06 0.198 1.09 0.395 2.19 0.599 3.32 0.213 1.15 0.426 2.3 0.646 3.49 3.4 18.8 5.81 37.7 7.6 56.8 0.119 1.26 0.239 2.53 0.362 3.83 1.46 16.2 2.11 32.3 2.12 48.6 0.00323 1.8 0.0066 3.59 0.0101 5.39 0.00594 3.75 0.00785 7.49 0.00725 11.2-8.06e-5 3.76 0.00677 7.52 0.0205 11.3 0.0877 24.4-0.428 48.6-2.21 73-0.0828 1.14-0.166 2.29-0.251 3.46-0.442 6-0.926 12-1.44 18-0.244 2.83-0.481 5.65-0.717 8.48-0.508 6.03-1.04 12.1-1.59 18.1-0.0924 1.03-0.185 2.07-0.28 3.13-1.65 18.3-3.66 36.6-5.72 54.8-0.137 1.22-0.275 2.45-0.417 3.71-1.29 11.5-2.59 23-3.9 34.5-2.94 25.8-5.82 51.7-8.1 77.6-0.0846 0.926-0.169 1.85-0.256 2.81-0.932 10.3-1.49 20.5-1.56 30.9-0.0108 0.965-0.0216 1.93-0.0327 2.92 0.0105 4.9 0.161 9.09 2.26 13.6 4.47 3.85 9.26 5.26 14.9 6.62 0.858 0.212 1.72 0.423 2.6 0.641 23 5.29 58 8.65 79.1-4.27 3.52-2.89 5.06-4.73 6.38-9.12 0.144-8.9-4.78-15.5-10-22.3-7.7-10.3-7.06-19.9-6.15-32.3 0.0896-1.37 0.178-2.74 0.266-4.11 1.15-17.5 2.99-34.9 5.14-52.3 0.352-2.85 0.701-5.71 1.05-8.56 0.865-7.09 1.73-14.2 2.61-21.3 0.737-6 1.47-12 2.2-18 0.238-1.95 0.477-3.91 0.716-5.86 1.15-9.42 2.28-18.8 3.15-28.3 0.0643-0.693 0.129-1.39 0.195-2.1 0.286-3.11 0.555-6.22 0.795-9.33 1.06-12.2 3.75-25.2 13.4-33.4 11.1-7.78 22.9-9.38 36.1-9.54 1.52-0.0279 1.52-0.0279 3.06-0.0564 7.94 0.0674 14.1 1.74 20.3 6.81 28.1 34.3 13.4 102 10.2 142-0.0889 1.13-0.178 2.25-0.269 3.41-0.43 5.43-0.867 10.9-1.32 16.3-5.8 41.5-5.8 41.5 2.64 80.8 8.53 8.26 22.7 11.1 34 13 0.79 0.131 1.58 0.263 2.39 0.398 15.9 2.06 37 3.13 50.6-6.4 3.61-3.98 4.11-7.76 4-13-1.71-6.98-6.4-10.7-12-15-2.43-1.39-4.83-2.76-7.35-3.99-2.93-3.56-2.08-7.59-1.65-12 0.633-4.68 1.41-9.33 2.22-14 11.9-68.5 17.7-138 20.7-207 0.0774-1.75 0.16-3.51 0.246-5.26 1.17-24 1.06-48 1.05-72-8.11e-5 -4.84 0.00685-9.68 0.0205-14.5 0.0787-28.3-0.156-56.5-2.21-84.8-0.0517-0.718-0.103-1.44-0.157-2.17-1.91-26.4-5.18-52.7-9.7-78.8-0.139-0.809-0.278-1.62-0.422-2.45-0.264-1.52-0.533-3.03-0.809-4.55-1.98-11.3-1.98-11.3 0.229-14.8 2.43-1.57 4.83-2.44 7.57-3.36 1.15-0.395 2.3-0.79 3.49-1.2 1.23-0.417 2.46-0.834 3.73-1.26 55.1-19.1 103-54.5 129-108 18-38.5 21.8-81.2 12.8-123-0.18-0.825-0.36-1.65-0.545-2.5-6.85-30.4-19-68.6-41.5-91.5h-2c-0.33-0.99-0.66-1.98-1-3-1.9-1.74-3.77-3.31-5.81-4.88-0.577-0.444-1.15-0.888-1.75-1.35-11-8.13-22.1-10.5-35.4-9.78-7.61 1.31-13.5 6.55-17.9 12.7-3.27 7.12-2.69 14.2-0.438 21.5 2.96 7.85 7.49 14.6 12.1 21.6 18.9 28.9 30.3 64.4 23.8 99-5.83 27.4-23.4 50.6-46.5 66.2-19.3 12.5-49.2 28.8-73 27-2.89-2.25-4.61-3.93-5.87-7.39-0.129-2.61-0.129-2.61 1.36-4.9 0.748-0.771 1.5-1.54 2.27-2.34 1.25-1.31 1.25-1.31 2.53-2.66 1.77-1.77 3.55-3.52 5.35-5.25 17.8-17.2 31.1-39.1 41.4-61.5 0.301-0.642 0.602-1.28 0.912-1.95 19.7-42.2 25.2-90.7 9.14-135-4.9-12.7-11.6-24.5-20.1-35.1-0.899-1.2-0.899-1.2-1.82-2.43-28.5-37.2-75.1-57.7-120-65.6-0.911-0.164-1.82-0.327-2.76-0.496-60.3-10.3-127 0.872-177 37.5zm350 113c-0.00935 0.637-0.0187 1.27-0.0283 1.93-0.286 15.7-1.65 30.7-4.97 46.1-0.175 0.811-0.35 1.62-0.531 2.46-4.42 19.8-11.9 38.7-21.5 56.5-0.562 1.09-1.12 2.18-1.7 3.3-4.63 8.86-9.92 17.3-15.3 25.7-0.732 1.15-1.46 2.31-2.2 3.46-1.6 2.52-3.2 5.03-4.8 7.54 5.76-0.518 10.1-2.82 15.1-5.5 0.843-0.45 1.69-0.9 2.55-1.36 6.98-3.81 13.2-7.99 19.3-13.1 0.751-0.628 0.751-0.628 1.52-1.27 16.6-14 29.5-33.4 31.4-55.6 0.0309-0.71 0.0619-1.42 0.0938-2.15 0.0773-1.48 0.0773-1.48 0.156-3 0.614-22.5-6.26-45.4-17.2-65h-2zm-352 345c-9.87 10.3-14.2 22.8-14.1 36.9 0.6 25.7 16.2 45.5 31.5 64.6 7.87 9.8 15.8 20.5 19.8 32.5h2c4.16-75 4.16-75-11-147-10.4 0-20.8 6.27-28.3 13z" fill="#000002"/>
<path transform="translate(1008 6.75)" d="m0 0c0.955-6.75e-4 1.91-0.00135 2.89-0.00204 58.6 0.065 118 9.6 173 30.3 0.927 0.343 1.85 0.687 2.81 1.04 40.9 15.3 79.2 37.6 113 65 0.713 0.572 1.43 1.14 2.16 1.73 9.26 7.45 18.2 15.1 26.8 23.3 1.11 1.02 2.23 2.05 3.34 3.07 14.7 13.5 14.7 13.5 17.7 16.9v2h2c1.3 1.29 1.3 1.29 2.88 3.19 2.76 3.25 5.59 6.41 8.5 9.52 5.51 5.89 10.7 11.9 15.6 18.3l2.44 3.06c11.5 14.5 22.5 29.4 32.6 44.9 0.456 0.7 0.911 1.4 1.38 2.12 8.43 13 16.2 26.3 23.6 39.9 0.592 1.09 1.18 2.17 1.79 3.29 37.4 69.1 59.5 144 66.2 223 0.11 1.26 0.11 1.26 0.223 2.54 0.43 5.15 0.656 10.3 0.777 15.5l0.0825 3.33c1.92 92.3-21.3 186-91.7 276-1.19 1.33-2.37 2.68-3.54 4.04-5.22 5.98-10.8 11.6-16.4 17.2-0.804 0.809-1.61 1.62-2.44 2.45-4.84 4.83-9.8 9.43-15 13.9-1.09 0.95-2.19 1.9-3.28 2.85-3.55 3.07-7.13 6.12-10.7 9.15-0.619 0.524-1.24 1.05-1.88 1.59-10.9 9.18-22.4 17.4-34.1 25.4-1.28 0.883-2.55 1.77-3.83 2.65-19.5 13.3-40.3 24.4-61.2 35.4-1.72 0.912-3.45 1.83-5.17 2.74-2.14 1.13-4.28 2.27-6.42 3.4-5.5 2.91-11 5.84-16.4 8.86-0.938 0.518-1.88 1.04-2.84 1.57-11.6 6.55-22.1 14.1-31.8 23.2-2.4 2.23-2.4 2.23-5.15 4.39-2.33 1.64-2.33 1.64-3.25 3.84h-2c-0.247 0.57-0.495 1.14-0.75 1.73-1.45 2.63-3.17 4.48-5.25 6.65-15.6 17.1-26.8 38.2-34.1 60.1-0.344 1.04-0.689 2.08-1.04 3.15-3.02 9.33-5.28 18.7-6.89 28.4-0.251 1.45-0.251 1.45-0.506 2.93-1.49 9.36-1.77 18.5-1.72 27.9 0.0012 1.61 0.00164 3.21 0.00139 4.82 0.00155 3.36 0.00974 6.72 0.0233 10.1 0.0167 4.2 0.0207 8.4 0.0202 12.6 6.36e-4 17.6 0.174 35.2 0.839 52.8 0.134 3.6 0.242 7.19 0.346 10.8 0.0282 0.704 0.0563 1.41 0.0853 2.13 0.0848 2.2 0.142 4.39 0.195 6.59 0.042 1.32 0.084 2.64 0.127 4-0.408 3.28-0.408 3.28-2.17 5.2-2.3 1.11-3.79 1.49-6.32 1.59-0.803 0.0366-1.61 0.0732-2.43 0.111-0.876 0.0251-1.75 0.0503-2.65 0.0761-1.42 0.0567-1.42 0.0567-2.86 0.114-3.05 0.118-6.11 0.217-9.16 0.315-1.88 0.073-3.76 0.147-5.64 0.223-6.35 0.243-12.7 0.422-19 0.593-2.19 0.0606-4.38 0.126-6.57 0.192-43.5 1.28-87 1.02-131 0.996-8.65-0.00435-17.3-0.00123-25.9 0.00363-8.46 0.00456-16.9 0.00517-25.4 0.00256-5-0.00154-10-0.00182-15 0.00154-68.6 0.0397-68.6 0.0397-77.6-7.14-1.28-4.15-1.15-8.41-1.14-12.7-0.00446-1.15-0.00446-1.15-9e-3 -2.33-0.00866-2.58-0.0102-5.15-0.0117-7.73-0.00463-1.85-0.00966-3.7-0.015-5.55-0.0131-5.03-0.0196-10.1-0.024-15.1-0.00294-3.15-0.00704-6.31-0.0115-9.46-0.0137-9.89-0.0233-19.8-0.0272-29.7-0.00446-11.4-0.0219-22.7-0.051-34.1-0.0218-8.81-0.0317-17.6-0.033-26.4-0.00104-5.25-0.00674-10.5-0.0248-15.7-0.213-65.7 13.1-126 51.3-181 0.745-1.08 1.49-2.16 2.26-3.28 8.96-12.9 18.8-25 29.6-36.4 2.25-2.36 2.25-2.36 4.14-5.36h2c0.263-0.592 0.526-1.18 0.798-1.79 1.26-2.31 2.53-3.71 4.44-5.49 0.972-0.911 0.972-0.911 1.96-1.84 1.04-0.959 1.04-0.959 2.11-1.94 0.723-0.669 1.45-1.34 2.19-2.03 23.3-21.4 49.3-39 75.8-56.2 2.4-1.55 4.79-3.11 7.18-4.66 5.78-3.76 11.6-7.5 17.4-11.2 41-25.9 41-25.9 79.1-55.9 1.13-0.967 1.13-0.967 2.29-1.95 36.7-31.5 56.9-82.9 61.5-130 2.6-42.6-4.9-81.8-33.7-115-4.96-5.28-10.3-9.81-16.1-14.2-1.04-0.802-2.07-1.6-3.14-2.43-28.8-21.8-63.9-32-99.7-31.9-0.81 8.76e-4 -1.62 0.00175-2.46 0.00266-13.9 0.0493-27.1 1.09-40.7 4.37-0.961 0.231-1.92 0.461-2.91 0.699-29.6 7.35-58.1 20.5-82.1 39.3-0.524 0.41-1.05 0.82-1.59 1.24-13 10.3-25.8 22.2-35.4 35.8-0.383 0.534-0.766 1.07-1.16 1.62-13.5 18.9-23.4 40.3-26.8 63.4-0.189 1.15-0.379 2.29-0.574 3.47-0.879 7.23-0.447 14.6-0.33 21.8 0.0302 2 0.0474 4.01 0.0642 6.01 0.0168 1.18 0.0337 2.37 0.051 3.59-0.208 3.03-0.789 4.48-2.21 7.08-27.3 0.314-54.6-0.0645-81.9-1.02-0.744-0.0261-1.49-0.0522-2.25-0.0791-9.25-0.326-18.5-0.666-27.8-1.01-12.3-0.461-24.7-0.904-37-1.35-4.56-0.165-9.12-0.33-13.7-0.497-16-0.586-32.1-1.14-48.1-1.62-0.757-0.0227-1.51-0.0454-2.29-0.0688-7.25-0.217-14.5-0.431-21.8-0.634-3.23-0.0907-6.45-0.186-9.68-0.28-1.14-0.0302-2.29-0.0605-3.46-0.0916-16.6-0.491-16.6-0.491-21-3.08-11.9-13.4-5.22-53.6-5.02-71.3l0.0381-3.29c0.439-27.6 3.52-55.6 8.44-82.8 0.542-3 1.06-6 1.57-9.01 7.04-39.8 19.3-79.1 36-116 0.377-0.847 0.754-1.69 1.14-2.57 6.08-13.6 13.3-26.6 20.9-39.4 0.724-1.24 0.724-1.24 1.46-2.5 17.2-29.2 38.5-55.7 62.4-79.6 1.47-1.47 2.93-2.95 4.4-4.43 6.23-6.27 12.8-12 19.7-17.5 1.32-1.08 2.63-2.17 3.94-3.27 14.3-11.9 29.4-22.7 45.1-32.7l2.27-1.47c71-45.6 152-70.8 236-77.5 1.6-0.141 1.6-0.141 3.24-0.286 10.4-0.851 20.8-0.958 31.2-0.964zm-18.7 16.1c-0.733 0.0448-1.47 0.0897-2.22 0.136-61.5 3.82-121 17.6-178 43.1-0.978 0.442-1.96 0.883-2.96 1.34-36.3 16.5-70.4 38.1-101 63.7-0.889 0.738-0.889 0.738-1.8 1.49-17.7 14.7-35.7 30.6-50 48.8-1.96 2.45-4 4.82-6.07 7.17-6.91 7.91-12.7 16.5-18.5 25.2-1.65 2.43-3.34 4.82-5.05 7.21-3.8 5.41-7.17 11-10.5 16.8-0.919 1.58-0.919 1.58-1.86 3.2-4.36 7.58-8.47 15.2-12.2 23.1-1.08 2.24-2.19 4.46-3.3 6.68-34.2 68.9-48 148-47.8 225 0.00538 3.07 8.86e-6 6.14-0.00635 9.21-0.00335 11.1 0.249 22.1 1.14 33.2 8.9 1.2 17.8 1.39 26.8 1.68 1.78 0.0601 3.56 0.12 5.34 0.181 4.77 0.162 9.55 0.319 14.3 0.475 3.99 0.131 7.97 0.265 12 0.399 25.9 0.868 51.8 1.68 77.6 2.44 14.2 0.416 28.3 0.857 42.5 1.39 1.26 0.047 2.52 0.0939 3.81 0.142 5.89 0.221 11.8 0.447 17.7 0.682 12.7 0.493 25.3 0.72 37.9 0.609 0.0396-0.779 0.0793-1.56 0.12-2.36 2.33-43.7 14.5-82.6 46-115 2.14-1.89 2.14-1.89 1.91-4.12 0.99-0.33 1.98-0.66 3-1 2.21-1.88 2.21-1.88 4-4v-2c0.574-0.25 1.15-0.5 1.74-0.758 2.58-1.42 4.33-3.07 6.45-5.12 43.1-39.4 102-56.6 160-54.4 48 2.36 92.8 23 125 58.5 27.9 31.8 38.2 76.4 35.7 118-3.38 47.8-21.8 99.2-55.7 134-1.18 1.24-1.18 1.24-2.39 2.51-4.99 5.13-10.2 9.77-15.8 14.2-2.81 2.26-5.53 4.6-8.25 6.95-13 10.8-27.4 20-41.6 29.3-0.951 0.627-0.951 0.627-1.92 1.27-9.72 6.4-19.6 12.5-29.5 18.5-8.63 5.23-17.1 10.7-25.5 16.2-1.54 1.01-1.54 1.01-3.11 2.04-13.3 8.79-26.4 18-38.9 28-0.92 0.726-1.84 1.45-2.79 2.2-6.29 5.04-12.2 10.4-18.1 15.9-2.61 2.44-5.29 4.8-7.99 7.14-10.7 9.57-20.3 20.5-29.1 31.8-0.481 0.609-0.963 1.22-1.46 1.85-12.5 15.8-23.1 32.4-32.5 50.2-0.352 0.653-0.703 1.31-1.07 1.98-10.5 19.6-17.5 40.5-22.9 62-0.183 0.715-0.366 1.43-0.554 2.17-4.08 16.3-4.74 32.8-4.67 49.5 5.66e-4 1.89 2.44e-4 3.79-8.85e-4 5.68-5.68e-4 5.08 0.0111 10.2 0.0251 15.2 0.0126 5.33 0.0137 10.7 0.0161 16 0.00619 10.1 0.0226 20.1 0.0427 30.2 0.0224 11.5 0.0334 23 0.0434 34.4 0.0208 23.6 0.056 47.2 0.101 70.8 4.16 0.609 8.22 1.14 12.4 1.3 1.54 0.0599 1.54 0.0599 3.11 0.121 1.11 0.0386 2.21 0.0772 3.35 0.117 1.18 0.0432 2.36 0.0863 3.58 0.131 3.93 0.139 7.85 0.27 11.8 0.397 1.03 0.0331 1.03 0.0331 2.08 0.0669 67.9 2.17 136 0.4 204-1.06 3.08-0.0658 6.16-0.13 9.23-0.194 4.89-0.102 9.78-0.207 14.7-0.316 1.79-0.0393 3.58-0.0773 5.37-0.114 8.97-0.185 17.9-0.42 26.8-1.44 0.074-11.5-0.14-23.1-0.428-34.6-2.2-90.7-2.2-90.7 7.43-122 0.21-0.702 0.419-1.4 0.635-2.13 8.55-27.9 23.7-54 44-75.1 2.63-2.46 2.63-2.46 3.4-5.78 0.99-0.33 1.98-0.66 3-1v-2c0.559-0.237 1.12-0.474 1.7-0.719 2.83-1.58 4.84-3.53 7.18-5.78 18.5-17.2 41.9-28.6 64.4-39.6 21.4-10.5 42.2-22.1 61.7-35.9l2.2-1.55c8.81-6.24 17.5-12.6 25.8-19.4 1.17-0.911 1.17-0.911 2.36-1.84 6.18-4.82 11.9-10 17.6-15.4 2.27-2.12 4.58-4.17 6.96-6.18 9.01-7.8 17.4-16.5 25.1-25.6l2.59-2.93c17.3-19.6 31.7-41.3 44.4-64.1 0.45-0.801 0.9-1.6 1.36-2.43 21.1-37.9 33.6-79.6 40.3-122 0.303-1.9 0.637-3.79 0.979-5.69 0.561-3.2 0.997-6.38 1.39-9.61 0.135-1.11 0.135-1.11 0.273-2.24 3.8-33.2 3.67-68.6-0.273-102l-0.391-3.3c-5.15-41.9-15.7-81.9-29.6-122-0.366-1.05-0.732-2.09-1.11-3.17-13.6-38.3-32.7-74.9-54.9-109-0.488-0.751-0.976-1.5-1.48-2.28-10.9-16.7-22.4-32.7-35.1-48-2.05-2.48-4.05-4.99-6.07-7.5-4.02-4.92-8.27-9.58-12.6-14.2-2-2.15-3.92-4.36-5.83-6.6-4.66-5.34-9.69-10.3-14.7-15.3-1.66-1.66-3.32-3.32-4.98-4.99-5.58-5.58-11.2-11-17.2-16.1-1.1-0.96-2.19-1.92-3.28-2.89-17.6-15.3-36.6-28.4-56.7-40.1-0.652-0.381-1.3-0.762-1.98-1.15-63.5-36.9-136-55.1-209-58.5-1.32-0.0602-1.32-0.0602-2.66-0.122-13.6-0.54-27.1-0.28-40.7 0.559z" fill="#000002"/>
<path transform="translate(865 1270)" d="m0 0c0.874 5.4e-4 1.75 0.00108 2.65 0.00164 29.1 0.0201 58.2 0.172 87.2 0.333 9.04 0.0498 18.1 0.0964 27.1 0.134 134 0.57 134 0.57 147 4.58 2.13 12.7 3.81 25.3 5 38.1 0.0827 0.875 0.165 1.75 0.251 2.65 1.45 15.4 2.52 30.9 3.44 46.3 0.091 1.52 0.091 1.52 0.184 3.08 0.41 6.95 0.778 13.9 1.13 20.9 0.0463 0.915 0.0926 1.83 0.14 2.77 0.864 17.6 1.02 35.3 1.03 52.9 7.22e-4 2.29 0.00288 4.58 0.0055 6.86 0.00916 8.01 0.0133 16 0.0125 24-6.05e-4 7.43 0.01 14.9 0.0257 22.3 0.0131 6.43 0.0184 12.9 0.0178 19.3-2.53e-4 3.82 0.00251 7.63 0.0132 11.5 0.00973 3.58 0.00973 7.15 0.00248 10.7-0.00153 1.92 0.00676 3.84 0.0154 5.76-0.0621 17.2-0.0621 17.2-4.76 23-4.35 3.37-8.11 3.22-13.4 3.44-0.922 0.0406-1.84 0.0812-2.8 0.123-1.98 0.0861-3.95 0.17-5.93 0.252-2.9 0.12-5.8 0.247-8.7 0.375-27.7 1.21-55.5 1.96-83.2 2.28-1.73 0.0202-3.46 0.0408-5.19 0.0619-65.4 0.794-131 0.494-196 0.406-2.25-4.32-3.45-7.58-3.88-12.4-0.116-1.3-0.231-2.59-0.35-3.93-0.112-1.44-0.223-2.87-0.333-4.31-0.0606-0.743-0.121-1.49-0.184-2.25-1.71-21-2.36-42.2-3.06-63.3-0.139-4.2-0.292-8.4-0.459-12.6-1.73-43.6-0.785-87.3 0.201-131 0.0218-0.973 0.0436-1.95 0.0661-2.95 0.279-12.4 0.587-24.8 0.937-37.2 0.0553-2.01 0.105-4.02 0.155-6.03 0.0799-3.15 0.177-6.3 0.283-9.45 0.0277-1.27 0.0277-1.27 0.0559-2.56 0.178-4.5 0.746-7.54 3.57-11.1 10.8-7.2 35.2-3.06 48.5-3.05zm-36.5 18c-0.747 9.34-1.3 18.7-1.55 28-0.0207 0.757-0.0414 1.51-0.0627 2.29-0.671 25.6-0.614 51.1-0.629 76.7-0.00421 6.9-0.0162 13.8-0.0424 20.7-0.125 33.6 0.176 67.2 1.73 101 0.0504 1.09 0.0504 1.09 0.102 2.2 0.223 4.79 0.457 9.59 0.7 14.4 0.0895 1.79 0.0895 1.79 0.181 3.62-0.262 9.71-0.262 9.71 2.56 18.3 1.71 0.091 3.43 0.111 5.15 0.104 1.11-0.00226 2.23-0.00451 3.38-0.00683 1.85-0.0115 1.85-0.0115 3.74-0.0233 1.29-0.00422 2.59-0.00844 3.92-0.0128 3.54-0.0118 7.08-0.03 10.6-0.0496 2.86-0.0152 5.73-0.0269 8.59-0.0386 9.26-0.0379 18.5-0.0885 27.8-0.142 2.57-0.0149 5.15-0.0296 7.72-0.0442 8.18-0.0467 16.4-0.0941 24.5-0.143 8.3-0.0492 16.6-0.0967 24.9-0.142 91.8 3.9 91.8 3.9 173-4.5 0.45-2.31 0.45-2.31 0.367-5.05 0.00835-1.61 0.00835-1.61 0.0169-3.24-0.00921-1.18-0.0184-2.36-0.0279-3.58 0.00307-1.86 0.00307-1.86 0.0062-3.76 0.0025-3.42-0.00846-6.83-0.0255-10.2-0.0151-3.6-0.0139-7.2-0.0147-10.8-0.0037-6.08-0.0187-12.2-0.0412-18.2-0.0285-7.7-0.0392-15.4-0.0437-23.1-0.00405-6.7-0.0166-13.4-0.0303-20.1-0.00402-2.11-0.00699-4.22-0.0098-6.32-0.045-28.9-1.01-57.6-3.07-86.4-0.088-1.25-0.176-2.5-0.267-3.79-1.05-14.9-2.13-29.7-3.48-44.5-0.111-1.24-0.221-2.49-0.335-3.77-0.108-1.12-0.217-2.24-0.329-3.4-0.0898-0.935-0.18-1.87-0.272-2.83-0.526-3.37-1.45-6.55-2.44-9.81-6.56-0.273-13.1-0.538-19.7-0.8-2.21-0.0887-4.42-0.179-6.62-0.271-38.1-1.58-76.2-2.09-114-2.03-5.15 0.00643-10.3 0.00685-15.4 0.00803-9.66 0.00306-19.3 0.0112-29 0.0213-11 0.0113-22.1 0.0167-33.1 0.0217-22.6 0.0103-45.2 0.0278-67.9 0.0503z" fill="#000002"/>
<path transform="translate(441,923)" d="m0 0c6.96 12.7 5.93 32.9 2.44 46.8-2.96 9.91-7.37 21.5-15.4 28.2-5.87-0.236-10.6-1.77-16-4.06-0.679-0.282-1.36-0.563-2.06-0.854-1.65-0.686-3.3-1.38-4.94-2.08 0.0522 1.57 0.0522 1.57 0.105 3.18 0.0281 1.38 0.0554 2.76 0.082 4.14 0.0251 0.69 0.0503 1.38 0.0762 2.09 0.0293 2.02 0.0293 2.02-0.264 5.6-0.513 0.446-1.03 0.892-1.56 1.35-1.74 1.62-1.74 1.62-1.42 4.31 0.19 1.09 0.38 2.17 0.576 3.29 0.21 1.26 0.421 2.51 0.638 3.81 0.123 0.684 0.246 1.37 0.372 2.07 0.402 2.24 0.782 4.49 1.16 6.74 0.701 4.18 1.42 8.35 2.15 12.5 2.25 13 4.48 26 6.52 39 0.164 1.02 0.327 2.04 0.496 3.1 3.18 20.7-8.49 37.8-18.7 55.1-0.348 0.592-0.697 1.18-1.06 1.79-3.67 6.07-7.25 11.4-14.1 13.9-2.88 0.625-2.88 0.625-6 0-5.92-4.19-10.3-9.55-14.4-15.4-0.829-1.17-0.829-1.17-1.68-2.35-14.9-21.3-15.9-34.5-12.4-59.7 2.52-18.1 4.77-36.2 5.47-54.5 0.0344-0.766 0.0688-1.53 0.104-2.32 0.107-4.02-0.286-6.94-2.04-10.6-2.21-5.02-2.83-9.67-3.06-15.1-4.4 1.41-8.75 2.89-13.1 4.57-0.711 0.276-1.42 0.551-2.15 0.835-1.43 0.559-2.87 1.13-4.29 1.7-5.17 2-5.17 2-8.5 0.894-4.78-7.85-6.17-18.1-8-27-0.231-1.12-0.231-1.12-0.466-2.27-5.34-26.8-5.34-26.8-0.721-36.5 3.28-4.78 3.28-4.78 5.19-6.19 3.76 0.452 6.77 1.7 10.1 3.37 0.995 0.487 1.99 0.975 3.01 1.48 1.06 0.525 2.12 1.05 3.21 1.59 11.2 5.49 22.6 10.6 34.2 15.5 1.66 0.726 3.3 1.5 4.91 2.32 4.57 2.32 4.57 2.32 9.57 2.35 4.05-2.16 7.9-4.52 11.7-7.03 1.69-1.09 3.38-2.17 5.07-3.25 0.858-0.551 1.72-1.1 2.6-1.67 6.16-3.92 12.4-7.69 18.7-11.5 1.7-1.03 3.39-2.07 5.08-3.11 0.871-0.532 1.74-1.06 2.64-1.61 0.708-0.434 1.42-0.869 2.14-1.32 4.86-2.67 8.48-3.34 14-3.12zm-16.8 22.7c-0.693 0.389-1.39 0.778-2.1 1.18-9.55 5.43-18.8 11.3-28.2 17.1 0.651 3.04 0.651 3.04 2.7 4.01 0.727 0.294 1.45 0.588 2.2 0.891 0.804 0.331 1.61 0.663 2.44 1 0.858 0.34 1.72 0.68 2.6 1.03 1.3 0.527 1.3 0.527 2.62 1.06 1.71 0.693 3.42 1.38 5.14 2.07 1.89 0.765 3.77 1.57 5.65 2.38 0.856 0.369 1.71 0.737 2.59 1.12 0.71 0.311 1.42 0.621 2.15 0.941 2.3 0.597 3.68 0.248 5.91-0.504 3.81-12.2 4.47-23.3 4-36-2.55 0-5.52 2.43-7.75 3.69zm-103 6.31c1.12 10.2 2.66 20 5 30 3.54-0.609 6.61-1.55 9.91-2.96 1.36-0.584 1.36-0.584 2.75-1.18 0.937-0.407 1.87-0.815 2.84-1.23 0.937-0.4 1.87-0.799 2.84-1.21 4.4-1.9 8.64-3.78 12.7-6.41-2.57-3.85-5.54-4.66-9.69-6.25-6.68-2.64-13.2-5.48-19.7-8.62-3.18-1.62-3.18-1.62-6.65-2.13zm44.9 29c-2.36 2.52-2.48 3.9-2.49 7.31 0.0846 3.15 0.0846 3.15 1.62 5.69 2.76 0.101 5.49 0.139 8.25 0.125 0.764 0.00387 1.53 0.00773 2.32 0.0117 3.94-0.00681 7.58-0.166 11.4-1.14 0.624-3.51 0.859-6.52 0-10-6.96-6.67-13.3-7.34-21.1-2zm6.92 30.5c-1.87 0.244-1.87 0.244-3.79 0.492-0.0239 0.727-0.0479 1.45-0.0725 2.2-0.821 22-3.44 43.6-6.63 65.4-0.158 1.1-0.315 2.2-0.478 3.34-0.298 2.08-0.604 4.15-0.92 6.22-1.19 8.29-0.746 14.1 3.6 21.5 0.348 0.592 0.696 1.18 1.05 1.8 3.83 6.41 8.09 12.5 12.4 18.6 5.5-1.83 7.41-8.08 10-13 0.397-0.748 0.793-1.5 1.2-2.27 1.27-2.44 2.51-4.89 3.74-7.36 0.603-1.16 0.603-1.16 1.22-2.35 0.37-0.765 0.741-1.53 1.12-2.32 0.499-1 0.499-1 1.01-2.02 2.01-7.57 0.471-15.6-0.859-23.1-0.246-1.46-0.246-1.46-0.498-2.95-0.531-3.14-1.07-6.27-1.62-9.4-0.368-2.16-0.735-4.31-1.1-6.47-0.727-4.27-1.46-8.53-2.19-12.8-0.889-5.16-1.76-10.3-2.63-15.5-0.442-2.62-0.885-5.24-1.33-7.87-0.199-1.19-0.398-2.38-0.602-3.6-0.182-1.06-0.363-2.12-0.55-3.21-0.153-0.904-0.307-1.81-0.465-2.74-0.253-2-0.253-2-1.45-3.01-3.47-0.169-6.78 0.0617-10.2 0.508z" fill="#000002"/>
<path transform="translate(416 707)" d="m0 0c2.99 0.0672 4.44 0.216 7.12 1.62 4.2 4.73 2.8 13.1 2.85 19.2 0.0166 1.59 0.0439 3.19 0.082 4.78 0.0549 2.31 0.0767 4.61 0.0913 6.92 0.0227 0.708 0.0453 1.42 0.0687 2.15-0.0165 3.89-0.474 5.53-2.94 8.6-3.1 2.42-4.73 3.07-8.65 3.07-3.25-0.938-3.25-0.938-6-3-2.57-7.24-2.33-14.6-2.31-22.2-0.0242-1.89-0.0242-1.89-0.0488-3.81-6.45e-4 -1.21-0.00129-2.42-0.00195-3.67-0.00298-1.1-0.00596-2.19-0.00903-3.32 0.735-5.94 3.58-10.3 9.75-10.3z" fill="#000002"/>
<path transform="translate(294,703)" d="m0 0c4.63 2.26 4.63 2.26 6 5 0.284 5.08 0.314 10.2 0.35 15.3 0.0166 1.7 0.0438 3.4 0.082 5.09 0.0549 2.45 0.0767 4.9 0.0913 7.36 0.0227 0.755 0.0453 1.51 0.0687 2.29-0.0162 4.05-0.42 5.79-3 8.98-3.5 2.73-3.5 2.73-6.6 2.71-0.639 0.0245-1.28 0.049-1.94 0.0742-3.35-1.24-5.27-3.79-7.06-6.76-0.503-2.89-0.727-5.19-0.699-8.07-0.0107-1.13-0.0107-1.13-0.0217-2.29-0.00775-1.59-0.00283-3.18 0.0141-4.77 0.0193-2.43-0.0202-4.85-0.0647-7.28-2.9e-4 -1.55 0.00285-3.1 0.00977-4.65-0.0153-0.721-0.0306-1.44-0.0463-2.18 0.0652-2.83 0.273-5.09 2.09-7.33 3.59-3.14 6.01-4.22 10.7-3.41z" fill="#000002"/>
</svg>
