<?xml version="1.0" standalone="no"?>
<!DOCTYPE svg PUBLIC "-//W3C//DTD SVG 20010904//EN"
 "http://www.w3.org/TR/2001/REC-SVG-20010904/DTD/svg10.dtd">
<svg version="1.0" xmlns="http://www.w3.org/2000/svg"
 width="1281.000000pt" height="370.000000pt" viewBox="0 0 1281.000000 370.000000"
 preserveAspectRatio="xMidYMid meet">

<g transform="translate(0.000000,370.000000) scale(0.100000,-0.100000)"
fill="#000000" stroke="none">
<path d="M658 3641 c-136 -55 -338 -234 -447 -395 -104 -153 -184 -359 -197
-505 -14 -153 41 -308 149 -416 94 -94 226 -155 261 -120 23 24 21 37 -28 128
-68 126 -80 179 -80 337 2 195 40 350 132 523 65 125 186 266 208 244 10 -10
4 -1900 -6 -2052 -11 -160 -20 -215 -56 -337 -32 -110 -30 -132 13 -136 46 -5
125 41 198 113 109 109 176 280 195 500 8 98 13 945 11 1734 l-1 284 -35 33
c-73 69 -229 101 -317 65z"/>
<path d="M4204 3651 c-35 -15 -43 -61 -50 -288 l-7 -216 -178 6 -179 6 -18
-27 c-11 -15 -24 -42 -30 -61 -16 -46 -15 -148 1 -158 6 -4 95 -10 197 -13
l185 -5 -4 -415 c-3 -409 -3 -416 -28 -490 -27 -82 -78 -183 -126 -245 -36
-48 -99 -115 -107 -115 -3 0 -5 44 -5 98 0 93 -2 102 -37 173 -47 94 -122 169
-323 319 -82 62 -154 116 -158 120 -5 4 12 37 37 72 105 151 149 294 112 366
-25 48 -68 67 -156 67 -65 0 -84 -4 -142 -33 -124 -61 -199 -176 -206 -317 -4
-72 -1 -88 22 -137 14 -30 35 -63 46 -73 20 -18 20 -19 -39 -129 -73 -138
-199 -358 -259 -451 -87 -137 -148 -194 -192 -180 -29 9 -42 60 -49 205 -7
124 1 602 13 781 3 42 0 94 -6 115 -14 53 -70 104 -170 154 -76 38 -88 41
-140 37 -196 -17 -346 -214 -508 -667 -28 -79 -56 -151 -61 -160 -7 -10 -9
117 -7 367 3 438 13 395 -97 433 -85 29 -167 37 -186 17 -13 -13 -17 -79 -22
-444 -9 -590 -8 -896 3 -976 12 -83 41 -142 79 -161 43 -23 149 -30 196 -14
35 12 40 17 46 53 30 179 47 258 80 380 78 286 163 501 271 682 68 115 165
230 180 215 6 -6 3 -158 -7 -401 -13 -307 -14 -421 -6 -529 23 -293 88 -405
235 -406 81 -1 151 34 245 120 102 94 169 191 367 522 l175 293 111 -103 c127
-117 188 -194 217 -274 51 -135 2 -287 -100 -314 -66 -18 -128 4 -241 83 -73
51 -106 53 -153 7 -43 -42 -85 -123 -85 -165 0 -44 23 -71 89 -105 81 -40 177
-61 311 -67 147 -6 234 11 355 71 156 78 278 211 384 420 27 55 52 93 54 85 3
-7 10 -52 17 -98 39 -280 166 -446 365 -477 134 -20 289 105 394 318 l48 97
17 -57 c32 -101 84 -188 152 -251 83 -78 149 -104 264 -104 167 0 316 89 421
250 l43 65 13 -51 c17 -70 37 -106 89 -161 95 -101 251 -133 369 -76 67 33
135 101 172 172 15 30 30 54 33 54 3 0 16 -20 29 -45 54 -101 166 -183 284
-206 146 -30 336 52 447 192 l37 47 7 -75 c5 -57 4 -79 -6 -88 -487 -444 -562
-526 -640 -691 -31 -65 -33 -76 -33 -179 0 -100 3 -115 28 -166 63 -130 226
-219 398 -219 204 0 400 145 477 351 67 181 83 312 82 677 l0 303 57 71 c206
255 374 542 504 863 l57 140 126 3 c146 3 136 12 111 -110 -9 -40 -22 -119
-30 -175 -69 -482 20 -791 261 -910 65 -32 84 -36 147 -36 58 0 82 5 125 27
69 35 129 91 167 155 17 28 32 51 35 51 3 0 18 -20 33 -45 42 -67 129 -140
195 -166 81 -31 204 -31 287 1 116 45 205 118 276 226 l42 66 18 -58 c63 -202
277 -313 454 -235 50 23 125 102 161 172 l28 54 8 -89 c5 -60 13 -95 24 -107
33 -36 103 -54 208 -53 94 0 100 2 121 26 21 24 23 40 29 190 11 259 25 383
61 524 49 191 128 394 179 459 26 34 33 5 39 -188 10 -288 45 -593 83 -725 17
-60 72 -128 121 -149 43 -17 147 -17 182 2 37 18 41 31 41 119 0 232 89 616
207 891 l38 90 6 -325 c8 -387 21 -503 70 -637 45 -121 118 -206 214 -249 192
-87 365 10 439 245 61 195 55 321 -14 321 -29 0 -49 -39 -76 -146 -38 -148
-74 -213 -131 -235 -78 -29 -148 64 -178 238 -22 124 -29 450 -16 732 12 279
10 290 -63 340 -68 46 -174 84 -238 85 -50 1 -60 -3 -87 -28 -65 -62 -236
-576 -267 -801 -10 -78 -21 -85 -28 -19 -14 132 -26 348 -26 490 0 228 -20
273 -145 331 -77 35 -180 39 -215 8 -37 -33 -101 -179 -180 -413 l-75 -221 -5
290 c-6 335 1 314 -112 342 -117 29 -163 32 -185 10 -18 -18 -20 -40 -26 -278
-4 -142 -7 -367 -7 -499 0 -210 -3 -250 -20 -310 -22 -79 -70 -184 -107 -239
-68 -98 -170 -100 -220 -4 -46 91 -60 354 -44 866 l11 364 -22 24 c-29 31
-136 63 -213 63 -76 0 -95 -16 -95 -80 l0 -44 -49 51 c-64 67 -117 100 -194
119 -275 71 -523 -178 -602 -606 -24 -129 -30 -336 -14 -460 18 -140 16 -167
-16 -239 -66 -147 -192 -173 -262 -54 -51 87 -65 155 -70 333 -6 184 7 298 57
520 44 192 46 219 22 273 -12 28 -33 54 -52 66 -56 33 -103 34 -275 1 -88 -16
-173 -32 -189 -35 l-28 -5 7 64 c9 90 -16 148 -77 176 -49 22 -81 24 -143 9
-93 -23 -161 -119 -172 -241 -5 -48 -2 -66 21 -112 15 -30 38 -62 52 -71 31
-20 29 -38 -18 -179 -60 -181 -143 -357 -251 -531 -99 -158 -89 -206 -86 418
2 628 11 573 -99 607 -78 24 -169 26 -200 4 -17 -12 -22 -25 -22 -60 0 -24 -2
-44 -4 -44 -3 0 -28 25 -57 55 -33 35 -77 67 -118 88 -59 29 -74 32 -156 32
-81 0 -97 -3 -158 -32 -87 -41 -166 -121 -227 -228 -50 -89 -111 -263 -131
-375 -13 -74 -19 -385 -9 -520 3 -55 0 -74 -23 -125 -58 -125 -109 -172 -175
-162 -83 14 -125 104 -143 311 -11 119 -6 673 8 888 l6 97 -31 29 c-57 54
-229 82 -280 46 -17 -12 -22 -25 -22 -60 0 -24 -2 -44 -4 -44 -3 0 -30 26 -61
59 -81 85 -152 115 -270 116 -83 0 -96 -3 -159 -34 -218 -107 -349 -389 -375
-806 -11 -164 -30 -238 -93 -357 -45 -87 -143 -184 -193 -194 -45 -8 -61 0
-93 46 -50 75 -72 207 -72 451 0 194 16 752 26 867 l6 72 218 0 219 0 19 25
c24 30 45 102 40 141 -2 19 -11 33 -28 41 -14 6 -121 17 -240 23 -118 6 -218
14 -222 16 -4 3 -5 17 -3 32 2 15 7 112 10 215 l6 188 -53 24 c-96 44 -235 72
-274 56z m1423 -1072 c37 -14 81 -56 103 -99 97 -189 82 -651 -29 -884 -52
-111 -140 -186 -218 -186 -72 0 -146 89 -184 222 -22 76 -24 101 -24 303 1
187 4 235 22 318 36 162 104 280 186 321 37 18 103 21 144 5z m1558 -13 c44
-26 85 -89 104 -162 20 -77 31 -273 21 -400 -26 -338 -131 -563 -276 -590 -51
-9 -84 3 -130 49 -76 77 -113 224 -114 452 0 408 121 675 309 675 29 0 59 -8
86 -24z m2628 10 c69 -28 122 -120 148 -257 17 -93 15 -365 -5 -475 -38 -215
-116 -363 -217 -415 -134 -68 -247 58 -279 313 -21 167 -8 407 30 559 54 220
186 333 323 275z m-2473 -1921 c-20 -203 -56 -332 -112 -399 -85 -103 -238
-107 -305 -7 -93 138 18 387 307 685 l115 118 3 -143 c2 -79 -2 -193 -8 -254z"/>
</g>
</svg>
